<mxfile host="app.diagrams.net" modified="2023-12-29T10:04:56.175Z" agent="Mozilla/5.0 (Windows NT 10.0; Win64; x64) AppleWebKit/537.36 (KHTML, like Gecko) Chrome/120.0.0.0 Safari/537.36" etag="5pHDe_joDNcxsOC4MKs2" version="22.1.15" type="device">
  <diagram id="C5RBs43oDa-KdzZeNtuy" name="Page-1">
    <mxGraphModel dx="2791" dy="1637" grid="1" gridSize="10" guides="1" tooltips="1" connect="1" arrows="1" fold="1" page="1" pageScale="1" pageWidth="827" pageHeight="1169" math="0" shadow="0">
      <root>
        <mxCell id="WIyWlLk6GJQsqaUBKTNV-0" />
        <mxCell id="WIyWlLk6GJQsqaUBKTNV-1" parent="WIyWlLk6GJQsqaUBKTNV-0" />
        <mxCell id="WIyWlLk6GJQsqaUBKTNV-2" value="" style="rounded=0;html=1;jettySize=auto;orthogonalLoop=1;fontSize=11;endArrow=block;endFill=0;endSize=8;strokeWidth=1;shadow=0;labelBackgroundColor=none;edgeStyle=orthogonalEdgeStyle;" parent="WIyWlLk6GJQsqaUBKTNV-1" edge="1">
          <mxGeometry relative="1" as="geometry">
            <mxPoint x="220" y="120" as="sourcePoint" />
            <mxPoint x="220" y="170" as="targetPoint" />
          </mxGeometry>
        </mxCell>
        <mxCell id="WIyWlLk6GJQsqaUBKTNV-7" value="Login" style="rounded=1;whiteSpace=wrap;html=1;fontSize=12;glass=0;strokeWidth=1;shadow=0;" parent="WIyWlLk6GJQsqaUBKTNV-1" vertex="1">
          <mxGeometry x="160" y="160" width="120" height="40" as="geometry" />
        </mxCell>
        <mxCell id="D6dALCXspbG0FcDe7bpR-0" value="Mulai" style="ellipse;whiteSpace=wrap;html=1;" vertex="1" parent="WIyWlLk6GJQsqaUBKTNV-1">
          <mxGeometry x="160" y="70" width="120" height="50" as="geometry" />
        </mxCell>
        <mxCell id="D6dALCXspbG0FcDe7bpR-1" value="Masukan Username &amp;amp; password" style="shape=parallelogram;perimeter=parallelogramPerimeter;whiteSpace=wrap;html=1;fixedSize=1;" vertex="1" parent="WIyWlLk6GJQsqaUBKTNV-1">
          <mxGeometry x="70" y="240" width="300" height="40" as="geometry" />
        </mxCell>
        <mxCell id="D6dALCXspbG0FcDe7bpR-2" value="" style="rounded=0;html=1;jettySize=auto;orthogonalLoop=1;fontSize=11;endArrow=block;endFill=0;endSize=8;strokeWidth=1;shadow=0;labelBackgroundColor=none;edgeStyle=orthogonalEdgeStyle;exitX=0.5;exitY=1;exitDx=0;exitDy=0;exitPerimeter=0;" edge="1" parent="WIyWlLk6GJQsqaUBKTNV-1" source="WIyWlLk6GJQsqaUBKTNV-7">
          <mxGeometry relative="1" as="geometry">
            <mxPoint x="219.71" y="210" as="sourcePoint" />
            <mxPoint x="220" y="240" as="targetPoint" />
          </mxGeometry>
        </mxCell>
        <mxCell id="D6dALCXspbG0FcDe7bpR-13" value="" style="edgeStyle=orthogonalEdgeStyle;rounded=0;orthogonalLoop=1;jettySize=auto;html=1;" edge="1" parent="WIyWlLk6GJQsqaUBKTNV-1" source="D6dALCXspbG0FcDe7bpR-3" target="D6dALCXspbG0FcDe7bpR-5">
          <mxGeometry relative="1" as="geometry" />
        </mxCell>
        <mxCell id="D6dALCXspbG0FcDe7bpR-3" value="Checking password" style="rhombus;whiteSpace=wrap;html=1;" vertex="1" parent="WIyWlLk6GJQsqaUBKTNV-1">
          <mxGeometry x="151" y="321" width="140" height="90" as="geometry" />
        </mxCell>
        <mxCell id="D6dALCXspbG0FcDe7bpR-4" value="" style="rounded=0;html=1;jettySize=auto;orthogonalLoop=1;fontSize=11;endArrow=block;endFill=0;endSize=8;strokeWidth=1;shadow=0;labelBackgroundColor=none;edgeStyle=orthogonalEdgeStyle;exitX=0.5;exitY=1;exitDx=0;exitDy=0;exitPerimeter=0;" edge="1" parent="WIyWlLk6GJQsqaUBKTNV-1">
          <mxGeometry relative="1" as="geometry">
            <mxPoint x="221" y="280" as="sourcePoint" />
            <mxPoint x="221" y="320" as="targetPoint" />
          </mxGeometry>
        </mxCell>
        <mxCell id="D6dALCXspbG0FcDe7bpR-5" value="Masukan password" style="shape=parallelogram;perimeter=parallelogramPerimeter;whiteSpace=wrap;html=1;fixedSize=1;" vertex="1" parent="WIyWlLk6GJQsqaUBKTNV-1">
          <mxGeometry x="350" y="346" width="210" height="40" as="geometry" />
        </mxCell>
        <mxCell id="D6dALCXspbG0FcDe7bpR-7" value="" style="endArrow=classic;html=1;rounded=0;exitX=1;exitY=0.5;exitDx=0;exitDy=0;entryX=0;entryY=0.5;entryDx=0;entryDy=0;" edge="1" parent="WIyWlLk6GJQsqaUBKTNV-1" source="D6dALCXspbG0FcDe7bpR-3" target="D6dALCXspbG0FcDe7bpR-5">
          <mxGeometry width="50" height="50" relative="1" as="geometry">
            <mxPoint x="390" y="390" as="sourcePoint" />
            <mxPoint x="440" y="340" as="targetPoint" />
          </mxGeometry>
        </mxCell>
        <mxCell id="D6dALCXspbG0FcDe7bpR-8" value="Pemeriksaan &lt;br&gt;Password" style="rhombus;whiteSpace=wrap;html=1;" vertex="1" parent="WIyWlLk6GJQsqaUBKTNV-1">
          <mxGeometry x="385" y="434" width="140" height="90" as="geometry" />
        </mxCell>
        <mxCell id="D6dALCXspbG0FcDe7bpR-9" value="" style="endArrow=classic;html=1;rounded=0;entryX=1;entryY=0.5;entryDx=0;entryDy=0;exitX=1;exitY=0.5;exitDx=0;exitDy=0;" edge="1" parent="WIyWlLk6GJQsqaUBKTNV-1" source="D6dALCXspbG0FcDe7bpR-8" target="D6dALCXspbG0FcDe7bpR-5">
          <mxGeometry width="50" height="50" relative="1" as="geometry">
            <mxPoint x="525" y="470" as="sourcePoint" />
            <mxPoint x="575" y="420" as="targetPoint" />
            <Array as="points">
              <mxPoint x="600" y="480" />
              <mxPoint x="600" y="366" />
            </Array>
          </mxGeometry>
        </mxCell>
        <mxCell id="D6dALCXspbG0FcDe7bpR-10" value="Halaman&lt;br&gt;Aplikasi" style="rounded=0;whiteSpace=wrap;html=1;" vertex="1" parent="WIyWlLk6GJQsqaUBKTNV-1">
          <mxGeometry x="162" y="450" width="120" height="60" as="geometry" />
        </mxCell>
        <mxCell id="D6dALCXspbG0FcDe7bpR-12" value="" style="rounded=0;html=1;jettySize=auto;orthogonalLoop=1;fontSize=11;endArrow=block;endFill=0;endSize=8;strokeWidth=1;shadow=0;labelBackgroundColor=none;edgeStyle=orthogonalEdgeStyle;exitX=0.5;exitY=1;exitDx=0;exitDy=0;exitPerimeter=0;" edge="1" parent="WIyWlLk6GJQsqaUBKTNV-1">
          <mxGeometry relative="1" as="geometry">
            <mxPoint x="221" y="410" as="sourcePoint" />
            <mxPoint x="221" y="450" as="targetPoint" />
          </mxGeometry>
        </mxCell>
        <mxCell id="D6dALCXspbG0FcDe7bpR-15" value="Main Menu" style="shape=process;whiteSpace=wrap;html=1;backgroundOutline=1;" vertex="1" parent="WIyWlLk6GJQsqaUBKTNV-1">
          <mxGeometry x="162" y="550" width="120" height="60" as="geometry" />
        </mxCell>
        <mxCell id="D6dALCXspbG0FcDe7bpR-16" value="" style="rounded=0;html=1;jettySize=auto;orthogonalLoop=1;fontSize=11;endArrow=block;endFill=0;endSize=8;strokeWidth=1;shadow=0;labelBackgroundColor=none;edgeStyle=orthogonalEdgeStyle;exitX=0.5;exitY=1;exitDx=0;exitDy=0;exitPerimeter=0;" edge="1" parent="WIyWlLk6GJQsqaUBKTNV-1">
          <mxGeometry relative="1" as="geometry">
            <mxPoint x="220" y="509" as="sourcePoint" />
            <mxPoint x="220" y="549" as="targetPoint" />
          </mxGeometry>
        </mxCell>
        <mxCell id="D6dALCXspbG0FcDe7bpR-26" value="" style="rounded=0;html=1;jettySize=auto;orthogonalLoop=1;fontSize=11;endArrow=block;endFill=0;endSize=8;strokeWidth=1;shadow=0;labelBackgroundColor=none;edgeStyle=orthogonalEdgeStyle;exitX=0.5;exitY=1;exitDx=0;exitDy=0;exitPerimeter=0;" edge="1" parent="WIyWlLk6GJQsqaUBKTNV-1">
          <mxGeometry relative="1" as="geometry">
            <mxPoint x="428.74" y="855" as="sourcePoint" />
            <mxPoint x="428.74" y="895" as="targetPoint" />
          </mxGeometry>
        </mxCell>
        <mxCell id="D6dALCXspbG0FcDe7bpR-31" value="benar" style="text;html=1;strokeColor=none;fillColor=none;align=center;verticalAlign=middle;whiteSpace=wrap;rounded=0;" vertex="1" parent="WIyWlLk6GJQsqaUBKTNV-1">
          <mxGeometry x="231" y="411" width="60" height="30" as="geometry" />
        </mxCell>
        <mxCell id="D6dALCXspbG0FcDe7bpR-32" value="salah" style="text;html=1;strokeColor=none;fillColor=none;align=center;verticalAlign=middle;whiteSpace=wrap;rounded=0;" vertex="1" parent="WIyWlLk6GJQsqaUBKTNV-1">
          <mxGeometry x="280" y="330" width="60" height="30" as="geometry" />
        </mxCell>
        <mxCell id="D6dALCXspbG0FcDe7bpR-33" value="" style="endArrow=classic;html=1;rounded=0;exitX=0;exitY=0.5;exitDx=0;exitDy=0;entryX=1;entryY=0.5;entryDx=0;entryDy=0;" edge="1" parent="WIyWlLk6GJQsqaUBKTNV-1" source="D6dALCXspbG0FcDe7bpR-8" target="D6dALCXspbG0FcDe7bpR-10">
          <mxGeometry width="50" height="50" relative="1" as="geometry">
            <mxPoint x="230" y="520" as="sourcePoint" />
            <mxPoint x="280" y="470" as="targetPoint" />
          </mxGeometry>
        </mxCell>
        <mxCell id="D6dALCXspbG0FcDe7bpR-34" value="tidak sesuai" style="text;html=1;strokeColor=none;fillColor=none;align=center;verticalAlign=middle;whiteSpace=wrap;rounded=0;" vertex="1" parent="WIyWlLk6GJQsqaUBKTNV-1">
          <mxGeometry x="520" y="441" width="60" height="30" as="geometry" />
        </mxCell>
        <mxCell id="D6dALCXspbG0FcDe7bpR-35" value="sesuai" style="text;html=1;strokeColor=none;fillColor=none;align=center;verticalAlign=middle;whiteSpace=wrap;rounded=0;" vertex="1" parent="WIyWlLk6GJQsqaUBKTNV-1">
          <mxGeometry x="297" y="441" width="60" height="30" as="geometry" />
        </mxCell>
        <mxCell id="D6dALCXspbG0FcDe7bpR-38" value="Company" style="rhombus;whiteSpace=wrap;html=1;" vertex="1" parent="WIyWlLk6GJQsqaUBKTNV-1">
          <mxGeometry x="140" y="650" width="160" height="90" as="geometry" />
        </mxCell>
        <mxCell id="D6dALCXspbG0FcDe7bpR-39" value="Manager&lt;br&gt;Approval" style="rhombus;whiteSpace=wrap;html=1;" vertex="1" parent="WIyWlLk6GJQsqaUBKTNV-1">
          <mxGeometry x="141" y="780" width="160" height="90" as="geometry" />
        </mxCell>
        <mxCell id="D6dALCXspbG0FcDe7bpR-40" value="" style="rounded=0;html=1;jettySize=auto;orthogonalLoop=1;fontSize=11;endArrow=block;endFill=0;endSize=8;strokeWidth=1;shadow=0;labelBackgroundColor=none;edgeStyle=orthogonalEdgeStyle;exitX=0.5;exitY=1;exitDx=0;exitDy=0;exitPerimeter=0;" edge="1" parent="WIyWlLk6GJQsqaUBKTNV-1">
          <mxGeometry relative="1" as="geometry">
            <mxPoint x="220" y="610" as="sourcePoint" />
            <mxPoint x="220" y="650" as="targetPoint" />
          </mxGeometry>
        </mxCell>
        <mxCell id="D6dALCXspbG0FcDe7bpR-41" value="" style="rounded=0;html=1;jettySize=auto;orthogonalLoop=1;fontSize=11;endArrow=block;endFill=0;endSize=8;strokeWidth=1;shadow=0;labelBackgroundColor=none;edgeStyle=orthogonalEdgeStyle;exitX=0.5;exitY=1;exitDx=0;exitDy=0;exitPerimeter=0;" edge="1" parent="WIyWlLk6GJQsqaUBKTNV-1">
          <mxGeometry relative="1" as="geometry">
            <mxPoint x="220" y="740" as="sourcePoint" />
            <mxPoint x="220" y="780" as="targetPoint" />
          </mxGeometry>
        </mxCell>
        <mxCell id="D6dALCXspbG0FcDe7bpR-42" value="" style="endArrow=classic;html=1;rounded=0;exitX=1;exitY=0.5;exitDx=0;exitDy=0;entryX=0;entryY=0.5;entryDx=0;entryDy=0;" edge="1" parent="WIyWlLk6GJQsqaUBKTNV-1">
          <mxGeometry width="50" height="50" relative="1" as="geometry">
            <mxPoint x="301" y="694.58" as="sourcePoint" />
            <mxPoint x="370" y="694.58" as="targetPoint" />
          </mxGeometry>
        </mxCell>
        <mxCell id="D6dALCXspbG0FcDe7bpR-43" value="View Detail&lt;br style=&quot;border-color: var(--border-color);&quot;&gt;Vendor" style="rounded=0;whiteSpace=wrap;html=1;" vertex="1" parent="WIyWlLk6GJQsqaUBKTNV-1">
          <mxGeometry x="370" y="795" width="120" height="60" as="geometry" />
        </mxCell>
        <mxCell id="D6dALCXspbG0FcDe7bpR-44" value="" style="endArrow=classic;html=1;rounded=0;exitX=1;exitY=0.5;exitDx=0;exitDy=0;entryX=0;entryY=0.5;entryDx=0;entryDy=0;" edge="1" parent="WIyWlLk6GJQsqaUBKTNV-1">
          <mxGeometry width="50" height="50" relative="1" as="geometry">
            <mxPoint x="301" y="824.58" as="sourcePoint" />
            <mxPoint x="370" y="824.58" as="targetPoint" />
          </mxGeometry>
        </mxCell>
        <mxCell id="D6dALCXspbG0FcDe7bpR-45" value="Approval&lt;br style=&quot;border-color: var(--border-color);&quot;&gt;Vendor" style="rounded=0;whiteSpace=wrap;html=1;" vertex="1" parent="WIyWlLk6GJQsqaUBKTNV-1">
          <mxGeometry x="370" y="895" width="120" height="60" as="geometry" />
        </mxCell>
        <mxCell id="D6dALCXspbG0FcDe7bpR-47" value="" style="rounded=0;html=1;jettySize=auto;orthogonalLoop=1;fontSize=11;endArrow=block;endFill=0;endSize=8;strokeWidth=1;shadow=0;labelBackgroundColor=none;edgeStyle=orthogonalEdgeStyle;exitX=0.5;exitY=1;exitDx=0;exitDy=0;exitPerimeter=0;" edge="1" parent="WIyWlLk6GJQsqaUBKTNV-1">
          <mxGeometry relative="1" as="geometry">
            <mxPoint x="430.74" y="955" as="sourcePoint" />
            <mxPoint x="430.74" y="995" as="targetPoint" />
          </mxGeometry>
        </mxCell>
        <mxCell id="D6dALCXspbG0FcDe7bpR-49" value="" style="rounded=0;html=1;jettySize=auto;orthogonalLoop=1;fontSize=11;endArrow=block;endFill=0;endSize=8;strokeWidth=1;shadow=0;labelBackgroundColor=none;edgeStyle=orthogonalEdgeStyle;exitX=0.5;exitY=1;exitDx=0;exitDy=0;entryX=0.459;entryY=0.013;entryDx=0;entryDy=0;entryPerimeter=0;" edge="1" parent="WIyWlLk6GJQsqaUBKTNV-1" source="D6dALCXspbG0FcDe7bpR-50">
          <mxGeometry relative="1" as="geometry">
            <mxPoint x="462" y="740" as="sourcePoint" />
            <mxPoint x="437.0799999999999" y="795.78" as="targetPoint" />
          </mxGeometry>
        </mxCell>
        <mxCell id="D6dALCXspbG0FcDe7bpR-50" value="Me-Register&lt;br&gt;Perusahaan" style="rhombus;whiteSpace=wrap;html=1;" vertex="1" parent="WIyWlLk6GJQsqaUBKTNV-1">
          <mxGeometry x="370" y="650" width="160" height="90" as="geometry" />
        </mxCell>
        <mxCell id="D6dALCXspbG0FcDe7bpR-51" value="" style="endArrow=classic;html=1;rounded=0;exitX=1;exitY=0.5;exitDx=0;exitDy=0;entryX=1;entryY=0.5;entryDx=0;entryDy=0;" edge="1" parent="WIyWlLk6GJQsqaUBKTNV-1" source="D6dALCXspbG0FcDe7bpR-50">
          <mxGeometry width="50" height="50" relative="1" as="geometry">
            <mxPoint x="590" y="855" as="sourcePoint" />
            <mxPoint x="490" y="1025" as="targetPoint" />
            <Array as="points">
              <mxPoint x="570" y="695" />
              <mxPoint x="570" y="1025" />
            </Array>
          </mxGeometry>
        </mxCell>
        <mxCell id="D6dALCXspbG0FcDe7bpR-52" value="Logout" style="rounded=1;whiteSpace=wrap;html=1;fontSize=12;glass=0;strokeWidth=1;shadow=0;" vertex="1" parent="WIyWlLk6GJQsqaUBKTNV-1">
          <mxGeometry x="550" y="1332" width="120" height="40" as="geometry" />
        </mxCell>
        <mxCell id="D6dALCXspbG0FcDe7bpR-53" value="Selesai" style="ellipse;whiteSpace=wrap;html=1;" vertex="1" parent="WIyWlLk6GJQsqaUBKTNV-1">
          <mxGeometry x="739" y="1327" width="120" height="50" as="geometry" />
        </mxCell>
        <mxCell id="D6dALCXspbG0FcDe7bpR-54" value="" style="endArrow=classic;html=1;rounded=0;exitX=1;exitY=0.5;exitDx=0;exitDy=0;entryX=0;entryY=0.5;entryDx=0;entryDy=0;" edge="1" parent="WIyWlLk6GJQsqaUBKTNV-1">
          <mxGeometry width="50" height="50" relative="1" as="geometry">
            <mxPoint x="670" y="1351.58" as="sourcePoint" />
            <mxPoint x="739" y="1351.58" as="targetPoint" />
          </mxGeometry>
        </mxCell>
        <mxCell id="D6dALCXspbG0FcDe7bpR-55" value="View Status&lt;br style=&quot;border-color: var(--border-color);&quot;&gt;Vendor" style="shape=process;whiteSpace=wrap;html=1;backgroundOutline=1;" vertex="1" parent="WIyWlLk6GJQsqaUBKTNV-1">
          <mxGeometry x="370" y="1000" width="120" height="60" as="geometry" />
        </mxCell>
        <mxCell id="D6dALCXspbG0FcDe7bpR-57" value="Submitting&lt;br&gt;Status perusahaan&lt;br&gt;pending?" style="rhombus;whiteSpace=wrap;html=1;" vertex="1" parent="WIyWlLk6GJQsqaUBKTNV-1">
          <mxGeometry x="349" y="1100" width="160" height="90" as="geometry" />
        </mxCell>
        <mxCell id="D6dALCXspbG0FcDe7bpR-58" value="" style="rounded=0;html=1;jettySize=auto;orthogonalLoop=1;fontSize=11;endArrow=block;endFill=0;endSize=8;strokeWidth=1;shadow=0;labelBackgroundColor=none;edgeStyle=orthogonalEdgeStyle;exitX=0.5;exitY=1;exitDx=0;exitDy=0;exitPerimeter=0;" edge="1" parent="WIyWlLk6GJQsqaUBKTNV-1">
          <mxGeometry relative="1" as="geometry">
            <mxPoint x="428.74" y="1060" as="sourcePoint" />
            <mxPoint x="428.74" y="1100" as="targetPoint" />
          </mxGeometry>
        </mxCell>
        <mxCell id="D6dALCXspbG0FcDe7bpR-61" value="gagal" style="rounded=0;whiteSpace=wrap;html=1;" vertex="1" parent="WIyWlLk6GJQsqaUBKTNV-1">
          <mxGeometry x="577" y="1252" width="70" height="40" as="geometry" />
        </mxCell>
        <mxCell id="D6dALCXspbG0FcDe7bpR-62" value="berhasil" style="rounded=0;whiteSpace=wrap;html=1;" vertex="1" parent="WIyWlLk6GJQsqaUBKTNV-1">
          <mxGeometry x="414" y="1332" width="70" height="40" as="geometry" />
        </mxCell>
        <mxCell id="D6dALCXspbG0FcDe7bpR-63" value="" style="rounded=0;html=1;jettySize=auto;orthogonalLoop=1;fontSize=11;endArrow=block;endFill=0;endSize=8;strokeWidth=1;shadow=0;labelBackgroundColor=none;edgeStyle=orthogonalEdgeStyle;exitX=0.5;exitY=1;exitDx=0;exitDy=0;" edge="1" parent="WIyWlLk6GJQsqaUBKTNV-1" source="D6dALCXspbG0FcDe7bpR-57">
          <mxGeometry relative="1" as="geometry">
            <mxPoint x="449.74" y="1292" as="sourcePoint" />
            <mxPoint x="449.74" y="1332" as="targetPoint" />
          </mxGeometry>
        </mxCell>
        <mxCell id="D6dALCXspbG0FcDe7bpR-64" value="" style="endArrow=classic;html=1;rounded=0;exitX=1;exitY=0.5;exitDx=0;exitDy=0;" edge="1" parent="WIyWlLk6GJQsqaUBKTNV-1">
          <mxGeometry width="50" height="50" relative="1" as="geometry">
            <mxPoint x="509" y="1144.58" as="sourcePoint" />
            <mxPoint x="610" y="1250" as="targetPoint" />
            <Array as="points">
              <mxPoint x="610" y="1145" />
            </Array>
          </mxGeometry>
        </mxCell>
        <mxCell id="D6dALCXspbG0FcDe7bpR-65" value="memilih" style="text;html=1;strokeColor=none;fillColor=none;align=center;verticalAlign=middle;whiteSpace=wrap;rounded=0;" vertex="1" parent="WIyWlLk6GJQsqaUBKTNV-1">
          <mxGeometry x="180" y="664" width="60" height="30" as="geometry" />
        </mxCell>
        <mxCell id="D6dALCXspbG0FcDe7bpR-66" value="memilih" style="text;html=1;strokeColor=none;fillColor=none;align=center;verticalAlign=middle;whiteSpace=wrap;rounded=0;" vertex="1" parent="WIyWlLk6GJQsqaUBKTNV-1">
          <mxGeometry x="181" y="786" width="60" height="30" as="geometry" />
        </mxCell>
        <mxCell id="D6dALCXspbG0FcDe7bpR-67" value="ya" style="text;html=1;strokeColor=none;fillColor=none;align=center;verticalAlign=middle;whiteSpace=wrap;rounded=0;" vertex="1" parent="WIyWlLk6GJQsqaUBKTNV-1">
          <mxGeometry x="282" y="650" width="60" height="30" as="geometry" />
        </mxCell>
        <mxCell id="D6dALCXspbG0FcDe7bpR-68" value="tidak" style="text;html=1;strokeColor=none;fillColor=none;align=center;verticalAlign=middle;whiteSpace=wrap;rounded=0;" vertex="1" parent="WIyWlLk6GJQsqaUBKTNV-1">
          <mxGeometry x="220" y="730" width="60" height="30" as="geometry" />
        </mxCell>
        <mxCell id="D6dALCXspbG0FcDe7bpR-69" value="ya" style="text;html=1;strokeColor=none;fillColor=none;align=center;verticalAlign=middle;whiteSpace=wrap;rounded=0;" vertex="1" parent="WIyWlLk6GJQsqaUBKTNV-1">
          <mxGeometry x="480" y="1110" width="60" height="30" as="geometry" />
        </mxCell>
        <mxCell id="D6dALCXspbG0FcDe7bpR-70" value="" style="endArrow=classic;html=1;rounded=0;entryX=0;entryY=0.5;entryDx=0;entryDy=0;" edge="1" parent="WIyWlLk6GJQsqaUBKTNV-1" target="D6dALCXspbG0FcDe7bpR-15">
          <mxGeometry width="50" height="50" relative="1" as="geometry">
            <mxPoint x="220" y="870" as="sourcePoint" />
            <mxPoint x="270" y="820" as="targetPoint" />
            <Array as="points">
              <mxPoint x="220" y="900" />
              <mxPoint x="170" y="900" />
              <mxPoint x="120" y="900" />
              <mxPoint x="120" y="580" />
            </Array>
          </mxGeometry>
        </mxCell>
        <mxCell id="D6dALCXspbG0FcDe7bpR-71" value="tidak" style="text;html=1;strokeColor=none;fillColor=none;align=center;verticalAlign=middle;whiteSpace=wrap;rounded=0;" vertex="1" parent="WIyWlLk6GJQsqaUBKTNV-1">
          <mxGeometry x="222" y="865" width="60" height="30" as="geometry" />
        </mxCell>
        <mxCell id="D6dALCXspbG0FcDe7bpR-72" value="" style="endArrow=classic;html=1;rounded=0;exitX=1;exitY=0.5;exitDx=0;exitDy=0;entryX=0;entryY=0.5;entryDx=0;entryDy=0;" edge="1" parent="WIyWlLk6GJQsqaUBKTNV-1">
          <mxGeometry width="50" height="50" relative="1" as="geometry">
            <mxPoint x="481" y="1351.58" as="sourcePoint" />
            <mxPoint x="550" y="1351.58" as="targetPoint" />
          </mxGeometry>
        </mxCell>
        <mxCell id="D6dALCXspbG0FcDe7bpR-74" value="tidak" style="text;html=1;strokeColor=none;fillColor=none;align=center;verticalAlign=middle;whiteSpace=wrap;rounded=0;" vertex="1" parent="WIyWlLk6GJQsqaUBKTNV-1">
          <mxGeometry x="440" y="1190" width="60" height="30" as="geometry" />
        </mxCell>
        <mxCell id="D6dALCXspbG0FcDe7bpR-76" value="" style="rounded=0;html=1;jettySize=auto;orthogonalLoop=1;fontSize=11;endArrow=block;endFill=0;endSize=8;strokeWidth=1;shadow=0;labelBackgroundColor=none;edgeStyle=orthogonalEdgeStyle;exitX=0.5;exitY=1;exitDx=0;exitDy=0;exitPerimeter=0;" edge="1" parent="WIyWlLk6GJQsqaUBKTNV-1">
          <mxGeometry relative="1" as="geometry">
            <mxPoint x="611.74" y="1292" as="sourcePoint" />
            <mxPoint x="611.74" y="1332" as="targetPoint" />
          </mxGeometry>
        </mxCell>
        <mxCell id="D6dALCXspbG0FcDe7bpR-77" value="ya" style="text;html=1;strokeColor=none;fillColor=none;align=center;verticalAlign=middle;whiteSpace=wrap;rounded=0;" vertex="1" parent="WIyWlLk6GJQsqaUBKTNV-1">
          <mxGeometry x="449" y="730" width="60" height="30" as="geometry" />
        </mxCell>
        <mxCell id="D6dALCXspbG0FcDe7bpR-78" value="tidak" style="text;html=1;strokeColor=none;fillColor=none;align=center;verticalAlign=middle;whiteSpace=wrap;rounded=0;" vertex="1" parent="WIyWlLk6GJQsqaUBKTNV-1">
          <mxGeometry x="517" y="664" width="60" height="30" as="geometry" />
        </mxCell>
      </root>
    </mxGraphModel>
  </diagram>
</mxfile>
